<svg xmlns="http://www.w3.org/2000/svg" viewBox="0 0 36 56"><title>tag_elevated@1x_6e6_np</title><rect width="36" height="56" fill="none"/><path d="M27.5294,20.6636A2.1177,2.1177,0,1,0,25.4117,22.79,2.083,2.083,0,0,0,27.5294,20.6636Z" fill="#6e6e73"/><path d="M27.3528,12.2c.8342,0,.8342,0,1.74.906l3.8015,3.8032c.906.9063.906.9063.906,1.7419v6.2027c0,1.3089,0,1.3089-.5658,1.8749L17.2313,42.7879A2.96,2.96,0,0,1,15.4364,43.8a3.0425,3.0425,0,0,1-1.8327-1.03L3.2284,32.4066c-1.3628-1.3634-1.367-2.2795-.02-3.6276L19.2712,12.7745c.5828-.5745.5828-.5745,1.8817-.5745h6.2m0-2.2h-6.2c-1.7295,0-2.3.0979-3.4262,1.2079L1.656,27.2206c-2.2025,2.2036-2.2189,4.5051.0163,6.7413l10.3766,10.365A4.8883,4.8883,0,0,0,15.4364,46a4.81,4.81,0,0,0,3.3508-1.6568L34.7926,28.2816C35.9184,27.1553,36,26.584,36,24.8538V18.6511c0-1.5833-.31-2.0567-1.55-3.2972l-3.8015-3.8032C29.4085,10.31,28.9354,10,27.3528,10Z" fill="#6e6e73"/></svg>